<svg width="40" height="39" viewBox="0 0 40 39" fill="none" xmlns="http://www.w3.org/2000/svg">
<mask id="mask0_5020_27" style="mask-type:luminance" maskUnits="userSpaceOnUse" x="0" y="0" width="40" height="39">
<path d="M40 0H0V38.6667H40V0Z" fill="white"/>
</mask>
<g mask="url(#mask0_5020_27)">
<path d="M35.853 0H4.14699C1.85659 0 0 1.83721 0 4.10369V34.563C0 36.8295 1.85659 38.6667 4.14699 38.6667H35.853C38.1434 38.6667 40 36.8295 40 34.563V4.10369C40 1.83721 38.1434 0 35.853 0ZM20.9296 28.1989H9.06833V10.4678H12.9381V24.3695H20.9296V28.1989ZM30.9317 18.3481C30.5583 18.2581 30.1706 18.2121 29.7707 18.2121C28.5041 18.2121 27.3467 18.6787 26.4661 19.4475V28.1989H22.5363V14.7654H26.4661V16.478C27.3805 15.3272 28.8007 14.5885 30.3959 14.5885C30.5763 14.5885 30.7567 14.5974 30.9317 14.6169V18.3481Z" fill="white"/>
</g>
</svg>
