<svg width="100%" height="100%" viewBox="0 0 20 20" fill="none" xmlns="http://www.w3.org/2000/svg">
<mask id="mask0_5021_305" style="mask-type:luminance" maskUnits="userSpaceOnUse" x="0" y="0" width="20" height="20">
<path d="M20 0H0V19.3333H20V0Z" fill="white"/>
</mask>
<g mask="url(#mask0_5021_305)">
<path d="M17.9265 0H2.0735C0.928297 0 0 0.918603 0 2.05185V17.2815C0 18.4147 0.928297 19.3333 2.0735 19.3333H17.9265C19.0717 19.3333 20 18.4147 20 17.2815V2.05185C20 0.918603 19.0717 0 17.9265 0ZM10.4648 14.0994H4.53417V5.2339H6.46903V12.1848H10.4648V14.0994ZM15.4658 9.17407C15.2791 9.12903 15.0853 9.10603 14.8853 9.10603C14.2521 9.10603 13.6733 9.33937 13.2331 9.72377V14.0994H11.2682V7.3827H13.2331V8.239C13.6903 7.6636 14.4004 7.29423 15.1979 7.29423C15.2882 7.29423 15.3784 7.2987 15.4658 7.30843V9.17407Z" fill="black"/>
</g>
</svg>
